<svg width="64" height="64" viewBox="0 0 64 64" fill="none" xmlns="http://www.w3.org/2000/svg">
<g filter="url(#filter0_d_138_2677)">
<rect x="8" y="6" width="48" height="48" rx="8" fill="white"/>
<path d="M49.1379 25.7324L50.9999 29.1334L47.0859 32.5408L49.1379 25.7324Z" fill="#2B8B4B"/>
<path d="M47.8332 25.7324L49.6953 29.1334L45.7812 32.5408L47.8332 25.7324Z" fill="#D9782D"/>
<path d="M22.101 32.3128C22.2847 32.1798 22.405 32.0214 22.462 31.8314L23.0827 29.7921C23.1397 29.6084 23.1144 29.4501 23.0067 29.3234C22.899 29.1968 22.747 29.1334 22.538 29.1334C22.7407 29.1334 22.937 29.0701 23.1207 28.9371C23.3044 28.8104 23.4247 28.6521 23.4754 28.4621L24.096 26.4228C24.153 26.2264 24.134 26.0618 24.0327 25.9288C23.9314 25.7958 23.773 25.7324 23.564 25.7324H15.4954L13.4434 32.4901H21.5184C21.721 32.5091 21.9174 32.4458 22.101 32.3128ZM16.5594 27.0688H20.4164H21.626H21.8794C22.025 27.1004 22.1454 27.1891 22.215 27.3094C22.2404 27.3918 22.253 27.4804 22.253 27.5691C22.253 27.6198 22.2467 27.6641 22.2404 27.7084L22.2277 27.7528L22.177 27.9238C22.0377 28.2214 21.74 28.4368 21.379 28.4748H21.132H16.135L16.5594 27.0688ZM21.3474 30.6724C21.2017 30.9511 20.9167 31.1474 20.5684 31.1918H20.315H15.3117L15.736 29.7984H19.593H20.7837H21.0434C21.2397 29.8428 21.3854 29.9821 21.4297 30.1594C21.436 30.1974 21.4424 30.2418 21.4424 30.2798C21.4424 30.2988 21.4424 30.3241 21.436 30.3431V30.3684L21.3474 30.6724ZM34.0077 25.7578L31.9937 32.4964H30.5434L31.354 29.7921H25.5274L24.7167 32.4964H23.2727L25.2867 25.7578H26.737L25.9264 28.4748H31.753L32.5637 25.7578H34.0077ZM34.432 32.5154H32.9754L35.002 25.7831H36.4587L34.432 32.5154ZM46.5984 25.7704L45.9967 27.7718L44.5844 32.4838H43.134L44.0904 29.2664L40.265 32.4901L37.9534 28.8484L36.864 32.4838H35.4137L36.9717 27.2968L37.4277 25.7641H37.453L38.4284 27.2524L40.5374 30.4761L46.5984 25.7704Z" fill="#6D6E71"/>
<path d="M13 34.3204L13.2597 33.3261H13.551C13.6333 33.3261 13.6967 33.3261 13.7283 33.3387C13.7663 33.3451 13.798 33.3577 13.817 33.3767C13.8487 33.4021 13.8677 33.4274 13.874 33.4654C13.8867 33.5034 13.8867 33.5414 13.874 33.5857C13.8613 33.6364 13.836 33.6807 13.798 33.7187C13.76 33.7567 13.7157 33.7821 13.6587 33.7947C13.722 33.8011 13.7663 33.8327 13.798 33.8771C13.8233 33.9214 13.8297 33.9784 13.8107 34.0417C13.798 34.0797 13.7853 34.1177 13.7537 34.1557C13.7283 34.1937 13.6967 34.2254 13.6587 34.2507C13.6207 34.2761 13.5763 34.2951 13.5257 34.3077C13.475 34.3204 13.399 34.3267 13.285 34.3267H13V34.3204ZM13.2153 34.1874H13.2787C13.342 34.1874 13.3927 34.1874 13.4243 34.1811C13.456 34.1747 13.4877 34.1684 13.5067 34.1557C13.532 34.1431 13.5573 34.1241 13.5763 34.1051C13.5953 34.0797 13.608 34.0607 13.6143 34.0291C13.6207 33.9974 13.6207 33.9721 13.6143 33.9467C13.608 33.9214 13.589 33.9024 13.5637 33.8897C13.5447 33.8834 13.5257 33.8771 13.5067 33.8707C13.4813 33.8707 13.456 33.8644 13.418 33.8644H13.361H13.2977L13.2153 34.1874ZM13.3293 33.7441H13.399C13.4877 33.7441 13.551 33.7314 13.5953 33.7124C13.6397 33.6934 13.665 33.6554 13.6777 33.6047C13.6903 33.5477 13.684 33.5097 13.6587 33.4907C13.627 33.4717 13.57 33.4591 13.475 33.4591H13.4053L13.3293 33.7441ZM14.596 34.3204L14.7227 33.8391H15.2863L15.1597 34.3204H15.3433L15.603 33.3261H15.4193L15.3243 33.6934H14.7607L14.8557 33.3261H14.672L14.4123 34.3204H14.596ZM16.857 34.3204L16.7937 34.0607H16.3377L16.1413 34.3204H15.945L16.7683 33.2817L17.0533 34.3204H16.857ZM16.439 33.9277H16.762L16.705 33.6997C16.705 33.6871 16.6987 33.6681 16.6987 33.6491C16.6987 33.6301 16.6923 33.6111 16.6923 33.5857C16.6797 33.6047 16.667 33.6301 16.6543 33.6491C16.6417 33.6681 16.629 33.6871 16.6163 33.6997L16.439 33.9277ZM17.9337 33.8771L17.8197 34.3204H17.6423L17.902 33.3261H18.1617C18.2377 33.3261 18.2947 33.3324 18.339 33.3387C18.377 33.3451 18.4087 33.3641 18.434 33.3831C18.4657 33.4084 18.4847 33.4401 18.491 33.4781C18.4973 33.5161 18.4973 33.5604 18.4847 33.6047C18.4657 33.6871 18.4277 33.7441 18.3707 33.7947C18.3137 33.8391 18.244 33.8707 18.1553 33.8771L18.434 34.3331H18.225L17.959 33.8897H17.9337V33.8771ZM17.978 33.7504H18.0097C18.1047 33.7504 18.1743 33.7377 18.2123 33.7187C18.2503 33.6997 18.2757 33.6617 18.2883 33.6111C18.301 33.5541 18.2947 33.5161 18.2693 33.4971C18.2377 33.4717 18.1807 33.4654 18.0857 33.4654H18.054L17.978 33.7504ZM19.783 34.3204L19.7197 34.0607H19.2637L19.061 34.3204H18.8647L19.688 33.2817L19.973 34.3204H19.783ZM19.3713 33.9277H19.6943L19.6373 33.6997C19.631 33.6871 19.631 33.6681 19.631 33.6491C19.631 33.6301 19.6247 33.6111 19.6247 33.5857C19.612 33.6047 19.5993 33.6301 19.593 33.6491C19.5803 33.6681 19.5677 33.6871 19.555 33.6997L19.3713 33.9277ZM21.3853 33.4591L21.4233 33.3197H20.6253L20.5873 33.4591H20.8913L20.6697 34.3204H20.8533L21.075 33.4591H21.3853ZM22.9497 34.3204L23.2093 33.3261H23.0193L22.7597 34.3204H22.9497ZM23.8743 34.3204L24.058 33.6301C24.0707 33.6491 24.0833 33.6681 24.096 33.6871C24.1087 33.7061 24.1277 33.7251 24.1403 33.7377L24.723 34.3584L24.9953 33.3261H24.8243L24.647 34.0164C24.628 33.9911 24.6153 33.9721 24.6027 33.9467C24.59 33.9277 24.571 33.9087 24.5583 33.8897L23.9883 33.2817L23.716 34.3204H23.8743ZM26.376 33.4591L26.4077 33.3197H25.616L25.578 33.4591H25.882L25.6603 34.3204H25.8503L26.072 33.4591H26.376ZM27.421 34.3204L27.459 34.1747H27.003L27.0853 33.8517H27.5413L27.5793 33.7124H27.1233L27.1867 33.4591H27.6427L27.6807 33.3197H27.0347L26.775 34.3141H27.421V34.3204ZM28.409 33.8771L28.295 34.3204H28.1177L28.3773 33.3261H28.637C28.713 33.3261 28.77 33.3324 28.808 33.3387C28.846 33.3451 28.8777 33.3641 28.903 33.3831C28.9347 33.4084 28.9537 33.4401 28.96 33.4781C28.9663 33.5161 28.9663 33.5604 28.9537 33.6047C28.9347 33.6871 28.8967 33.7441 28.8397 33.7947C28.7827 33.8391 28.713 33.8707 28.6243 33.8771L28.903 34.3331H28.694L28.428 33.8897H28.409V33.8771ZM28.4533 33.7504H28.485C28.5863 33.7504 28.6497 33.7377 28.6877 33.7187C28.7257 33.6997 28.751 33.6617 28.7637 33.6111C28.7763 33.5541 28.77 33.5161 28.7447 33.4971C28.713 33.4717 28.656 33.4654 28.561 33.4654H28.5293L28.4533 33.7504ZM29.6883 34.3204L29.8087 33.8517H30.2647L30.3027 33.7124H29.8467L29.91 33.4654H30.366L30.404 33.3261H29.7643L29.5047 34.3204H29.6883ZM31.5313 34.3204L31.468 34.0607H31.012L30.8093 34.3204H30.613L31.4363 33.2817L31.7213 34.3204H31.5313ZM31.1133 33.9277H31.4363L31.3793 33.6997C31.373 33.6871 31.373 33.6681 31.373 33.6491C31.373 33.6301 31.3667 33.6111 31.3667 33.5857C31.354 33.6047 31.3413 33.6301 31.3287 33.6491C31.316 33.6681 31.3033 33.6871 31.297 33.6997L31.1133 33.9277ZM33.463 33.4021C33.4123 33.3704 33.3617 33.3451 33.3047 33.3261C33.2477 33.3071 33.1843 33.3007 33.1147 33.3007C33.0323 33.3007 32.95 33.3134 32.8677 33.3387C32.7853 33.3641 32.7093 33.4021 32.646 33.4527C32.5763 33.5034 32.5193 33.5604 32.4687 33.6237C32.4243 33.6871 32.3863 33.7567 32.3673 33.8264C32.3483 33.9024 32.3483 33.9657 32.361 34.0354C32.3737 34.0987 32.4053 34.1557 32.4433 34.2064C32.4877 34.2571 32.5447 34.2887 32.6143 34.3141C32.684 34.3394 32.76 34.3521 32.8487 34.3521C32.9183 34.3521 32.9817 34.3457 33.045 34.3267C33.1083 34.3141 33.1717 34.2887 33.2287 34.2571L33.273 34.0734C33.2033 34.1177 33.14 34.1494 33.0703 34.1684C33.0007 34.1874 32.9373 34.2001 32.8677 34.2001C32.7537 34.2001 32.665 34.1621 32.608 34.0924C32.551 34.0227 32.532 33.9341 32.5637 33.8264C32.5953 33.7124 32.6587 33.6237 32.7537 33.5541C32.8487 33.4844 32.9627 33.4464 33.0893 33.4464C33.1527 33.4464 33.216 33.4591 33.2667 33.4781C33.3173 33.4971 33.368 33.5287 33.4123 33.5667L33.463 33.4021ZM34.5713 34.3204L34.6093 34.1747H34.1533L34.2357 33.8517H34.6917L34.7297 33.7124H34.2737L34.337 33.4591H34.793L34.831 33.3197H34.1913L33.9317 34.3141H34.5713V34.3204ZM36.427 34.3204L36.5473 33.8517H37.0033L37.0413 33.7124H36.5853L36.6487 33.4654H37.1047L37.1427 33.3261H36.503L36.2433 34.3204H36.427ZM38.8717 33.8264C38.8527 33.8961 38.821 33.9657 38.7703 34.0291C38.726 34.0924 38.6627 34.1494 38.593 34.2001C38.5233 34.2507 38.4473 34.2887 38.365 34.3141C38.2827 34.3394 38.2003 34.3521 38.1243 34.3521C38.042 34.3521 37.966 34.3394 37.8963 34.3141C37.8267 34.2887 37.7697 34.2507 37.7253 34.2001C37.681 34.1494 37.6493 34.0924 37.6367 34.0354C37.624 33.9721 37.624 33.9024 37.643 33.8327C37.662 33.7631 37.6937 33.6934 37.738 33.6301C37.7823 33.5667 37.8457 33.5097 37.9153 33.4591C37.985 33.4084 38.061 33.3704 38.1433 33.3451C38.2257 33.3197 38.308 33.3071 38.3903 33.3071C38.4727 33.3071 38.5487 33.3197 38.6183 33.3451C38.688 33.3704 38.7387 33.4084 38.7893 33.4591C38.8337 33.5097 38.8653 33.5667 38.878 33.6301C38.8907 33.6871 38.8907 33.7567 38.8717 33.8264ZM38.6753 33.8264C38.688 33.7757 38.688 33.7251 38.6817 33.6807C38.6753 33.6364 38.6563 33.5921 38.6247 33.5604C38.593 33.5224 38.555 33.4971 38.5107 33.4781C38.4663 33.4591 38.4157 33.4527 38.3587 33.4527C38.3017 33.4527 38.2447 33.4591 38.194 33.4781C38.137 33.4971 38.0863 33.5224 38.0357 33.5604C37.985 33.5921 37.947 33.6364 37.9153 33.6807C37.8837 33.7251 37.8583 33.7757 37.8457 33.8264C37.833 33.8771 37.833 33.9277 37.8393 33.9721C37.8457 34.0164 37.871 34.0607 37.8963 34.0924C37.928 34.1304 37.966 34.1557 38.0103 34.1747C38.0547 34.1937 38.1053 34.2001 38.1623 34.2001C38.2193 34.2001 38.2763 34.1874 38.327 34.1747C38.384 34.1557 38.4347 34.1304 38.4853 34.0924C38.536 34.0544 38.574 34.0164 38.612 33.9721C38.6373 33.9214 38.6627 33.8771 38.6753 33.8264ZM39.733 33.8771L39.619 34.3204H39.4417L39.7013 33.3261H39.961C40.037 33.3261 40.094 33.3324 40.1383 33.3387C40.1763 33.3451 40.208 33.3641 40.2333 33.3831C40.265 33.4084 40.284 33.4401 40.2903 33.4781C40.2967 33.5161 40.2967 33.5604 40.284 33.6047C40.265 33.6871 40.227 33.7441 40.17 33.7947C40.113 33.8391 40.0433 33.8707 39.9547 33.8771L40.2333 34.3331H40.0243L39.7583 33.8897H39.733V33.8771ZM39.7773 33.7504H39.809C39.9103 33.7504 39.9737 33.7377 40.0117 33.7187C40.0497 33.6997 40.075 33.6617 40.0877 33.6111C40.1003 33.5541 40.094 33.5161 40.0687 33.4971C40.037 33.4717 39.98 33.4654 39.885 33.4654H39.8533L39.7773 33.7504ZM42.8553 34.3204H43.0263L43.02 33.2817L42.526 33.9087L42.507 33.9341C42.469 33.9784 42.4437 34.0164 42.4247 34.0417C42.4183 34.0101 42.412 33.9784 42.4057 33.9531C42.3993 33.9277 42.3993 33.9151 42.393 33.9024L42.222 33.2754L41.6773 34.3141H41.8483L42.1017 33.8201C42.1143 33.7947 42.127 33.7694 42.1333 33.7504C42.1397 33.7251 42.1523 33.7061 42.1587 33.6871C42.1587 33.7061 42.165 33.7314 42.165 33.7504C42.1713 33.7694 42.1713 33.7947 42.1777 33.8137L42.336 34.3584L42.773 33.8264C42.792 33.8011 42.811 33.7821 42.8237 33.7567C42.8363 33.7314 42.849 33.7124 42.8617 33.6871C42.8617 33.7061 42.8553 33.7314 42.8553 33.7567C42.849 33.7947 42.849 33.8137 42.849 33.8201V34.3204H42.8553ZM44.9707 33.8264C44.9517 33.8961 44.92 33.9657 44.8757 34.0291C44.8313 34.0924 44.768 34.1494 44.6983 34.2001C44.6287 34.2507 44.5527 34.2887 44.4703 34.3141C44.388 34.3394 44.3057 34.3521 44.2233 34.3521C44.141 34.3521 44.065 34.3394 43.9953 34.3141C43.9257 34.2887 43.8687 34.2507 43.8243 34.2001C43.78 34.1494 43.7483 34.0924 43.7357 34.0354C43.723 33.9721 43.723 33.9024 43.742 33.8327C43.761 33.7631 43.7927 33.6934 43.837 33.6301C43.8813 33.5667 43.9447 33.5097 44.0143 33.4591C44.084 33.4084 44.16 33.3704 44.2423 33.3451C44.3247 33.3197 44.407 33.3071 44.4893 33.3071C44.5717 33.3071 44.6477 33.3197 44.711 33.3451C44.7807 33.3704 44.8377 33.4084 44.882 33.4591C44.9263 33.5097 44.958 33.5667 44.9707 33.6301C44.9897 33.6871 44.9897 33.7567 44.9707 33.8264ZM44.7743 33.8264C44.787 33.7757 44.787 33.7251 44.7807 33.6807C44.7743 33.6364 44.749 33.5921 44.7237 33.5604C44.692 33.5224 44.654 33.4971 44.6097 33.4781C44.5653 33.4591 44.5147 33.4527 44.4577 33.4527C44.4007 33.4527 44.3437 33.4591 44.2867 33.4781C44.2297 33.4971 44.179 33.5224 44.1283 33.5604C44.0777 33.5921 44.0397 33.6364 44.008 33.6807C43.9763 33.7251 43.951 33.7757 43.9383 33.8264C43.9257 33.8771 43.9257 33.9277 43.932 33.9721C43.9447 34.0164 43.9637 34.0607 43.989 34.0924C44.0207 34.1304 44.0587 34.1557 44.103 34.1747C44.1473 34.1937 44.198 34.2001 44.255 34.2001C44.312 34.2001 44.369 34.1874 44.426 34.1747C44.483 34.1557 44.5337 34.1304 44.5843 34.0924C44.635 34.0544 44.673 34.0164 44.7047 33.9721C44.7363 33.9214 44.7617 33.8771 44.7743 33.8264ZM45.7117 34.3204L45.889 33.6301C45.9017 33.6491 45.9143 33.6681 45.927 33.6871C45.9397 33.7061 45.9523 33.7251 45.9713 33.7377L46.554 34.3584L46.8263 33.3261H46.6553L46.478 34.0164C46.459 33.9911 46.4463 33.9721 46.4273 33.9467C46.4147 33.9277 46.3957 33.9087 46.383 33.8897L45.813 33.2817L45.5407 34.3204H45.7117ZM47.9537 34.3204L47.9917 34.1747H47.5357L47.618 33.8517H48.074L48.112 33.7124H47.656L47.7193 33.4591H48.1753L48.2133 33.3197H47.5737L47.314 34.3141H47.9537V34.3204ZM49.0873 34.3204L49.2077 33.8644L49.746 33.3261H49.556L49.2203 33.6617C49.2077 33.6744 49.195 33.6871 49.1823 33.6997C49.1697 33.7124 49.157 33.7314 49.1443 33.7441C49.138 33.7251 49.138 33.7124 49.1317 33.6997C49.1253 33.6871 49.119 33.6744 49.119 33.6681L48.967 33.3324H48.7707L49.0177 33.8707L48.8973 34.3267H49.0873V34.3204Z" fill="#6D6E71"/>
</g>
<defs>
<filter id="filter0_d_138_2677" x="0" y="0" width="64" height="64" filterUnits="userSpaceOnUse" color-interpolation-filters="sRGB">
<feFlood flood-opacity="0" result="BackgroundImageFix"/>
<feColorMatrix in="SourceAlpha" type="matrix" values="0 0 0 0 0 0 0 0 0 0 0 0 0 0 0 0 0 0 127 0" result="hardAlpha"/>
<feOffset dy="2"/>
<feGaussianBlur stdDeviation="4"/>
<feColorMatrix type="matrix" values="0 0 0 0 0.388235 0 0 0 0 0.388235 0 0 0 0 0.388235 0 0 0 0.2 0"/>
<feBlend mode="normal" in2="BackgroundImageFix" result="effect1_dropShadow_138_2677"/>
<feBlend mode="normal" in="SourceGraphic" in2="effect1_dropShadow_138_2677" result="shape"/>
</filter>
</defs>
</svg>
