<svg width="64" height="64" viewBox="0 0 64 64" fill="none" xmlns="http://www.w3.org/2000/svg">
<g filter="url(#filter0_d_138_2626)">
<rect x="8" y="6" width="48" height="48" rx="8" fill="white"/>
<g clip-path="url(#clip0_138_2626)">
<path d="M45.8311 20.2181C43.4007 19.7263 39.4818 19.0612 38.3869 21.3491C35.0409 27.1448 33.1198 33.2105 31.6738 35.8131C31.8257 35.9008 38.4904 39.7676 38.9619 39.9964C40.4602 40.7235 42.9617 40.3963 44.0273 38.4743C46.9836 33.1426 46.2321 34.5306 49.3732 29.0903C51.403 25.5746 48.8652 20.8319 45.8311 20.2181Z" fill="#EA4335"/>
<path d="M24.8033 43.7468C23.1713 41.8798 21.9741 38.1445 23.4082 36.0526C27.5974 28.7964 30.951 24.4038 33.5884 20.0009C34.9869 20.8084 40.5906 23.9869 40.9637 24.3144C42.2157 25.4127 43.2529 27.5112 42.1212 29.3951C38.9819 34.6212 37.6938 36.9862 34.503 42.5131C32.4727 46.0297 26.8421 46.0793 24.8033 43.7468Z" fill="#FDBD00"/>
<path d="M39.8293 16.519C36.5646 14.6112 34.8865 14.8613 33.1308 15.1428C31.5346 15.5419 29.3764 16.7018 28.4666 18.192C26.1715 21.9512 23.9976 25.671 21.1815 30.7118C20.3141 32.2644 20.9579 34.1718 21.7584 34.9288C22.3008 35.442 26.2923 37.6442 27.0287 37.9608C28.0705 38.4087 29.631 38.0971 30.5723 37.1282C30.8323 36.8606 36.7867 26.633 38.4636 23.6164C39.1714 22.3435 39.809 21.639 40.8674 20.9599C42.9122 19.887 44.5087 19.7485 46.954 20.6427C46.954 20.6427 41.6319 17.5578 39.8293 16.519Z" fill="#2DA94F"/>
<path d="M18.8232 40.5214C15.5385 38.648 14.916 37.0697 14.282 35.4083C13.8295 33.8267 13.755 31.3775 14.5906 29.8443C16.6988 25.9773 16.6836 25.9577 19.6411 20.9984C20.552 19.4709 22.5259 19.0748 23.5817 19.3895C24.2973 19.6026 28.2001 21.9582 28.8426 22.4378C29.7514 23.116 30.2617 24.6232 29.8934 25.923C29.7915 26.2819 26.0607 32.8295 24.2869 35.7902C23.5382 37.0395 23.247 37.9438 23.1882 39.1999C23.2813 41.5073 23.9596 42.9591 25.9567 44.6298C25.9567 44.6298 20.6241 41.563 18.8232 40.5214Z" fill="#297AEC"/>
</g>
</g>
<defs>
<filter id="filter0_d_138_2626" x="0" y="0" width="64" height="64" filterUnits="userSpaceOnUse" color-interpolation-filters="sRGB">
<feFlood flood-opacity="0" result="BackgroundImageFix"/>
<feColorMatrix in="SourceAlpha" type="matrix" values="0 0 0 0 0 0 0 0 0 0 0 0 0 0 0 0 0 0 127 0" result="hardAlpha"/>
<feOffset dy="2"/>
<feGaussianBlur stdDeviation="4"/>
<feColorMatrix type="matrix" values="0 0 0 0 0.388235 0 0 0 0 0.388235 0 0 0 0 0.388235 0 0 0 0.2 0"/>
<feBlend mode="normal" in2="BackgroundImageFix" result="effect1_dropShadow_138_2626"/>
<feBlend mode="normal" in="SourceGraphic" in2="effect1_dropShadow_138_2626" result="shape"/>
</filter>
<clipPath id="clip0_138_2626">
<rect width="38" height="31.9504" fill="white" transform="translate(13 14)"/>
</clipPath>
</defs>
</svg>
