<svg width="65" height="64" viewBox="0 0 65 64" fill="none" xmlns="http://www.w3.org/2000/svg">
<g filter="url(#filter0_d_138_2661)">
<rect x="8.66602" y="6" width="48" height="48" rx="8" fill="white"/>
<g clip-path="url(#clip0_138_2661)">
<path d="M51.5377 26.8299C51.1929 25.8437 50.2527 25.1356 49.1488 25.1356H49.1257C48.4079 25.1356 47.761 25.4343 47.3006 25.9138C46.8394 25.4343 46.1925 25.1356 45.4755 25.1356H45.4524C44.8215 25.1356 44.2448 25.3666 43.8019 25.7489V25.5545C43.7867 25.3608 43.6274 25.2087 43.4307 25.2087H41.7371C41.5299 25.2087 41.3627 25.376 41.3627 25.5838V34.7807C41.3627 34.9887 41.5301 35.1559 41.7371 35.1559H43.4307C43.6195 35.1559 43.7748 35.0148 43.7996 34.8324L43.7988 28.2301C43.7988 28.207 43.7996 28.1856 43.802 28.164C43.8291 27.8693 44.0449 27.6272 44.386 27.5968H44.6982C44.8408 27.6095 44.9612 27.6597 45.0559 27.7354C45.2033 27.8524 45.2852 28.0325 45.2852 28.2301L45.2916 34.7999C45.2916 35.0078 45.4597 35.1759 45.666 35.1759H47.3596C47.5594 35.1759 47.7221 35.0166 47.7317 34.8183L47.7309 28.2215C47.7301 28.0047 47.8305 27.8088 48.0065 27.6925C48.0933 27.6367 48.1977 27.5993 48.3179 27.5881H48.6301C48.9966 27.62 49.2181 27.898 49.2173 28.2215L49.2237 34.7824C49.2237 34.9903 49.3918 35.1575 49.5981 35.1575H51.2917C51.4979 35.1575 51.666 34.9902 51.666 34.7824V27.7261C51.666 27.2449 51.6119 27.0401 51.5377 26.8299ZM40.0724 25.2327H39.1037V23.6586C39.1037 23.4698 38.9508 23.3169 38.762 23.3169C38.7396 23.3169 38.7182 23.3201 38.6974 23.324C37.6235 23.6188 37.8386 25.1061 35.8782 25.2327H35.6878C35.6591 25.2327 35.632 25.2367 35.6057 25.2423H35.6042L35.6057 25.243C35.4384 25.2804 35.3125 25.4286 35.3125 25.6071V27.3008C35.3125 27.5071 35.4806 27.6752 35.6876 27.6752H36.7097L36.7082 34.8567C36.7082 35.0615 36.8738 35.2272 37.0786 35.2272H38.753C38.957 35.2272 39.1227 35.0615 39.1227 34.8567L39.1234 27.6752H40.0722C40.2785 27.6752 40.4466 27.5071 40.4466 27.3008V25.6072C40.4469 25.4008 40.2788 25.2327 40.0724 25.2327Z" fill="#54C1F0"/>
<path d="M33.979 25.2326H32.2854C32.0791 25.2326 31.9118 25.4007 31.9118 25.607V29.1089C31.9078 29.3257 31.7326 29.4992 31.5151 29.4992H30.8061C30.5864 29.4992 30.4087 29.3225 30.4087 29.1025L30.4023 25.607C30.4023 25.4007 30.2342 25.2326 30.0279 25.2326H28.3342C28.127 25.2326 27.9598 25.4007 27.9598 25.607V29.4451C27.9598 30.903 28.9993 31.9425 30.4579 31.9425C30.4579 31.9425 31.5525 31.9425 31.5859 31.9489C31.7835 31.9712 31.9372 32.1369 31.9372 32.3409C31.9372 32.5424 31.7865 32.7074 31.5914 32.732C31.5818 32.7335 31.573 32.7359 31.5626 32.7376L29.086 32.7464C28.8788 32.7464 28.7116 32.9145 28.7116 33.1208V34.8136C28.7116 35.0208 28.8789 35.188 29.086 35.188H31.8549C33.3143 35.188 34.3531 34.1492 34.3531 32.6906V25.6071C34.3534 25.4007 34.1862 25.2326 33.979 25.2326ZM17.7351 25.2323H14.0332C13.8302 25.2323 13.666 25.3971 13.666 25.5995V27.2589C13.666 27.2621 13.6668 27.2653 13.6668 27.2685C13.6668 27.2764 13.666 27.2845 13.666 27.2916V34.8019C13.666 35.0059 13.8189 35.1723 14.0086 35.1771H15.7341C15.9404 35.1771 16.1085 35.0097 16.1085 34.8027L16.1149 32.2289H17.7352C19.091 32.2289 20.0359 31.2881 20.0359 29.9267V27.5377C20.0357 26.1762 19.0909 25.2323 17.7351 25.2323ZM17.5861 29.381C17.5861 29.6 17.4084 29.7785 17.1894 29.7785L16.1147 29.7792V27.685H17.1894C17.4084 27.685 17.5861 27.8617 17.5861 28.0817V29.381ZM24.3439 25.2419H21.9939C21.786 25.2419 21.6179 25.3997 21.6179 25.5931V26.2519C21.6179 26.2559 21.6187 26.2607 21.6187 26.2647C21.6187 26.2694 21.6179 26.2743 21.6179 26.279V27.1815C21.6179 27.3863 21.7963 27.5535 22.0161 27.5535H24.2539C24.4307 27.5813 24.571 27.7104 24.5909 27.9119V28.1302C24.571 28.3222 24.4323 28.4623 24.2635 28.4783H23.1554C21.6816 28.4783 20.6317 29.4573 20.6317 30.8323V32.8014C20.6317 34.1684 21.5343 35.141 22.9976 35.141H26.0686C26.6199 35.141 27.0668 34.7236 27.0668 34.2097V27.7839C27.0668 26.2258 26.2638 25.2419 24.3439 25.2419ZM24.6132 32.5763C24.6132 32.5979 24.61 32.6186 24.6068 32.6385C24.6028 32.6572 24.5975 32.6756 24.5909 32.6935C24.5383 32.8417 24.3901 32.9492 24.2141 32.9492H23.5091C23.2893 32.9492 23.1099 32.7818 23.1099 32.5763V32.2568C23.1099 32.2529 23.1092 32.2489 23.1092 32.2448L23.1099 31.3948V31.1288L23.1107 31.1264C23.1114 30.9217 23.2891 30.756 23.5089 30.756H24.2139C24.4346 30.756 24.6131 30.9224 24.6131 31.1288V32.5763H24.6132Z" fill="#233266"/>
</g>
</g>
<defs>
<filter id="filter0_d_138_2661" x="0.666016" y="0" width="64" height="64" filterUnits="userSpaceOnUse" color-interpolation-filters="sRGB">
<feFlood flood-opacity="0" result="BackgroundImageFix"/>
<feColorMatrix in="SourceAlpha" type="matrix" values="0 0 0 0 0 0 0 0 0 0 0 0 0 0 0 0 0 0 127 0" result="hardAlpha"/>
<feOffset dy="2"/>
<feGaussianBlur stdDeviation="4"/>
<feColorMatrix type="matrix" values="0 0 0 0 0.388235 0 0 0 0 0.388235 0 0 0 0 0.388235 0 0 0 0.2 0"/>
<feBlend mode="normal" in2="BackgroundImageFix" result="effect1_dropShadow_138_2661"/>
<feBlend mode="normal" in="SourceGraphic" in2="effect1_dropShadow_138_2661" result="shape"/>
</filter>
<clipPath id="clip0_138_2661">
<rect width="38" height="11.9168" fill="white" transform="translate(13.666 23.3136)"/>
</clipPath>
</defs>
</svg>
