<svg width="65" height="64" viewBox="0 0 65 64" fill="none" xmlns="http://www.w3.org/2000/svg">
<g filter="url(#filter0_d_138_2645)">
<rect x="8.83398" y="6" width="48" height="48" rx="8" fill="white"/>
<path d="M32.834 50C43.8797 50 52.834 41.0457 52.834 30C52.834 18.9543 43.8797 10 32.834 10C21.7883 10 12.834 18.9543 12.834 30C12.834 41.0457 21.7883 50 32.834 50Z" fill="#5F259F"/>
<path d="M41.9123 24.7805C41.9123 23.9987 41.2418 23.3282 40.4599 23.3282H37.7786L31.6336 16.2894C31.075 15.6189 30.1813 15.3956 29.2875 15.6189L27.1647 16.2894C26.8295 16.4013 26.7175 16.8479 26.9414 17.0712L33.645 23.4401H23.4765C23.1413 23.4401 22.918 23.6634 22.918 23.9987V25.1157C22.918 25.8976 23.5884 26.568 24.3703 26.568H25.9345V31.9313C25.9345 35.9535 28.0573 38.3002 31.633 38.3002C32.7501 38.3002 33.6444 38.1883 34.7615 37.7417V41.3173C34.7615 42.3231 35.5433 43.1049 36.549 43.1049H38.1133C38.4485 43.1049 38.7838 42.7697 38.7838 42.4344V26.4567H41.3537C41.689 26.4567 41.9123 26.2334 41.9123 25.8982V24.7805ZM34.7615 34.3893C34.091 34.7245 33.1972 34.8365 32.5268 34.8365C30.7392 34.8365 29.8454 33.9427 29.8454 31.9313V26.568H34.7615V34.3893Z" fill="white"/>
</g>
<defs>
<filter id="filter0_d_138_2645" x="0.833984" y="0" width="64" height="64" filterUnits="userSpaceOnUse" color-interpolation-filters="sRGB">
<feFlood flood-opacity="0" result="BackgroundImageFix"/>
<feColorMatrix in="SourceAlpha" type="matrix" values="0 0 0 0 0 0 0 0 0 0 0 0 0 0 0 0 0 0 127 0" result="hardAlpha"/>
<feOffset dy="2"/>
<feGaussianBlur stdDeviation="4"/>
<feColorMatrix type="matrix" values="0 0 0 0 0.388235 0 0 0 0 0.388235 0 0 0 0 0.388235 0 0 0 0.2 0"/>
<feBlend mode="normal" in2="BackgroundImageFix" result="effect1_dropShadow_138_2645"/>
<feBlend mode="normal" in="SourceGraphic" in2="effect1_dropShadow_138_2645" result="shape"/>
</filter>
</defs>
</svg>
